<svg version="1.1" xmlns="http://www.w3.org/2000/svg" viewBox="0 0 360 300" width="360" height="300">
  <!-- svg-source:excalidraw -->
  
  <defs>
    <style class="style-fonts">
      
    </style>
    
  </defs>
  <rect x="0" y="0" width="360" height="300" fill="#ffffff"></rect><g stroke-linecap="round" transform="translate(10 10) rotate(0 80 40)"><path d="M0 0 C58.08 0, 116.16 0, 160 0 M0 0 C38.62 0, 77.25 0, 160 0 M160 0 C160 23.5, 160 47, 160 80 M160 0 C160 27.55, 160 55.09, 160 80 M160 80 C105.89 80, 51.78 80, 0 80 M160 80 C97.48 80, 34.96 80, 0 80 M0 80 C0 53.34, 0 26.69, 0 0 M0 80 C0 57.8, 0 35.6, 0 0" stroke="#ff9e56" stroke-width="4" fill="none"></path></g><g stroke-linecap="round" transform="translate(190 110) rotate(0 80 40)"><path d="M0 0 C63.38 0, 126.77 0, 160 0 M0 0 C60.34 0, 120.68 0, 160 0 M160 0 C160 22.82, 160 45.63, 160 80 M160 0 C160 20.66, 160 41.31, 160 80 M160 80 C96.39 80, 32.78 80, 0 80 M160 80 C104.89 80, 49.78 80, 0 80 M0 80 C0 58.11, 0 36.23, 0 0 M0 80 C0 48.03, 0 16.06, 0 0" stroke="#ff9e56" stroke-width="4" fill="none"></path></g><g stroke-linecap="round" transform="translate(10 210) rotate(0 80 40)"><path d="M0 0 C47.19 0, 94.38 0, 160 0 M0 0 C44.28 0, 88.57 0, 160 0 M160 0 C160 17.99, 160 35.97, 160 80 M160 0 C160 22.9, 160 45.79, 160 80 M160 80 C124.4 80, 88.81 80, 0 80 M160 80 C97.18 80, 34.35 80, 0 80 M0 80 C0 49.97, 0 19.93, 0 0 M0 80 C0 60.46, 0 40.91, 0 0" stroke="#ff9e56" stroke-width="4" fill="none"></path></g><g stroke-linecap="round"><g transform="translate(170 50) rotate(0 50 30)"><path d="M0 0 C32.89 0, 65.78 0, 100 0 M0 0 C20.75 0, 41.49 0, 100 0 M100 0 C100 16.28, 100 32.57, 100 60 M100 0 C100 13.13, 100 26.26, 100 60" stroke="#ff9e56" stroke-width="4" fill="none"></path></g><g transform="translate(170 50) rotate(0 50 30)"><path d="M91.45 36.51 C94.26 44.23, 97.07 51.96, 100 60 M91.45 36.51 C93.22 41.38, 95 46.25, 100 60" stroke="#ff9e56" stroke-width="4" fill="none"></path></g><g transform="translate(170 50) rotate(0 50 30)"><path d="M108.55 36.51 C105.74 44.23, 102.93 51.96, 100 60 M108.55 36.51 C106.78 41.38, 105 46.25, 100 60" stroke="#ff9e56" stroke-width="4" fill="none"></path></g></g><mask></mask><g stroke-linecap="round"><g transform="translate(270 190) rotate(0 -50 30)"><path d="M0 0 C0 16.76, 0 33.51, 0 60 M0 0 C0 13.18, 0 26.36, 0 60 M0 60 C-22.41 60, -44.82 60, -100 60 M0 60 C-26.4 60, -52.81 60, -100 60" stroke="#ff9e56" stroke-width="4" fill="none"></path></g><g transform="translate(270 190) rotate(0 -50 30)"><path d="M-76.51 51.45 C-83.07 53.84, -89.63 56.23, -100 60 M-76.51 51.45 C-81.67 53.33, -86.83 55.21, -100 60" stroke="#ff9e56" stroke-width="4" fill="none"></path></g><g transform="translate(270 190) rotate(0 -50 30)"><path d="M-76.51 68.55 C-83.07 66.16, -89.63 63.77, -100 60 M-76.51 68.55 C-81.67 66.67, -86.83 64.79, -100 60" stroke="#ff9e56" stroke-width="4" fill="none"></path></g></g><mask></mask></svg>